<svg width="427" height="70" viewBox="0 0 427 70" fill="none" xmlns="http://www.w3.org/2000/svg">
<g clip-path="url(#clip0_12_2)">
<path d="M202.41 14.59C203.75 16.02 204.72 17.91 205.3 20.21C205.37 20.49 205.61 20.68 205.89 20.68H214.8C215.19 20.68 215.49 20.31 215.41 19.93C214.35 14.87 212.34 10.9 209.43 8.1C206.22 5.01 201.63 3.45 195.8 3.45C191.56 3.45 187.83 4.48 184.7 6.52C181.57 8.56 179.13 11.48 177.44 15.19C175.74 18.94 174.87 23.42 174.87 28.52C174.87 33.62 175.78 38.34 177.56 42.04C179.33 45.71 181.81 48.57 184.92 50.51C188.03 52.46 191.62 53.45 195.62 53.45C199.62 53.45 202.87 52.71 205.63 51.25C208.38 49.79 210.64 47.65 212.34 44.89C213.82 42.49 214.91 39.59 215.57 36.28C215.65 35.9 215.35 35.54 214.96 35.54H206.03C205.74 35.54 205.49 35.75 205.43 36.04C204.9 38.52 203.98 40.57 202.67 42.12C201.03 44.06 198.71 45.04 195.75 45.04C193.47 45.04 191.48 44.33 189.83 42.93C188.22 41.56 186.96 39.62 186.1 37.15C185.25 34.73 184.82 31.83 184.82 28.53C184.82 25.23 185.23 22.46 186.03 19.99C186.85 17.48 188.09 15.48 189.73 14.06C191.4 12.61 193.45 11.88 195.81 11.88C198.5 11.88 200.72 12.8 202.42 14.6" fill="white"/>
<path d="M237.65 53.61C234.14 53.61 231.12 52.85 228.58 51.33C226.04 49.81 224.09 47.64 222.73 44.83C221.37 42.02 220.68 38.72 220.68 34.94C220.68 31.16 221.37 27.81 222.76 25.02C224.15 22.23 226.1 20.05 228.61 18.48C231.12 16.91 234.14 16.13 237.65 16.13C241.16 16.13 244.11 16.91 246.62 18.48C249.13 20.05 251.06 22.25 252.41 25.08C253.75 27.92 254.43 31.25 254.43 35.07C254.43 38.89 253.77 42.07 252.45 44.86C251.13 47.65 249.21 49.8 246.7 51.33C244.18 52.85 241.17 53.61 237.66 53.61M237.59 45.94C239.76 45.94 241.5 45.43 242.82 44.42C244.14 43.41 245.11 42.07 245.71 40.41C246.32 38.75 246.62 36.95 246.62 35.02C246.62 33.09 246.32 31.26 245.71 29.56C245.1 27.85 244.14 26.48 242.82 25.44C241.5 24.4 239.75 23.88 237.59 23.88C235.43 23.88 233.67 24.4 232.32 25.44C230.98 26.48 230 27.84 229.4 29.52C228.79 31.2 228.49 33.04 228.49 35.02C228.49 37 228.8 38.77 229.43 40.45C230.06 42.13 231.03 43.47 232.35 44.46C233.67 45.45 235.42 45.95 237.58 45.95" fill="white"/>
<path d="M276.72 69.8C274.21 69.8 271.86 69.37 269.67 68.52C267.48 67.67 265.64 66.33 264.15 64.51C262.83 62.9 261.89 60.88 261.33 58.46C261.21 57.96 261.61 57.49 262.12 57.49H268.63C268.98 57.49 269.3 57.7 269.41 58.03C269.7 58.89 270.17 59.61 270.82 60.19C271.6 60.88 272.52 61.38 273.58 61.68C274.64 61.98 275.73 62.13 276.86 62.13C278.98 62.13 280.66 61.67 281.9 60.75C283.13 59.83 284.01 58.57 284.53 56.98C285.05 55.39 285.31 53.65 285.31 51.76V48.3C284.53 49.64 283.54 50.7 282.35 51.48C281.16 52.27 279.9 52.81 278.58 53.11C277.26 53.41 275.95 53.56 274.65 53.56C271.1 53.56 268.2 52.73 265.97 51.07C263.74 49.41 262.1 47.19 261.06 44.4C260.02 41.61 259.5 38.53 259.5 35.17C259.5 31.81 260.07 28.47 261.22 25.59C262.37 22.71 264.1 20.42 266.42 18.71C268.74 17 271.65 16.15 275.16 16.15C277.2 16.15 279.11 16.53 280.91 17.29C282.71 18.05 284.21 19.19 285.43 20.71L285.86 17.4C285.91 17 286.25 16.7 286.66 16.7H292.5C292.94 16.7 293.3 17.06 293.3 17.5V49.96C293.3 54.06 292.75 57.6 291.64 60.57C290.54 63.54 288.77 65.83 286.34 67.42C283.91 69.01 280.71 69.81 276.72 69.81M276.26 46.08C278.3 46.08 279.99 45.56 281.33 44.52C282.67 43.48 283.69 42.1 284.38 40.37C285.07 38.64 285.42 36.76 285.42 34.73C285.42 32.7 285.08 30.79 284.41 29.13C283.74 27.47 282.74 26.16 281.42 25.19C280.1 24.22 278.4 23.74 276.32 23.74C274.11 23.74 272.36 24.27 271.06 25.33C269.76 26.39 268.82 27.78 268.23 29.51C267.65 31.24 267.35 33.07 267.35 35.01C267.35 36.95 267.65 38.89 268.26 40.58C268.87 42.26 269.82 43.6 271.12 44.59C272.42 45.58 274.13 46.08 276.26 46.08Z" fill="white"/>
<path d="M300.96 52.33V17.49C300.96 17.05 301.32 16.69 301.76 16.69H307.64C308.05 16.69 308.4 17 308.44 17.41L308.82 21.32C309.73 20.03 310.79 19.01 312 18.28C313.21 17.54 314.49 17 315.83 16.66C317.17 16.31 318.43 16.14 319.6 16.14C322.85 16.14 325.42 16.9 327.3 18.42C329.18 19.94 330.52 21.97 331.3 24.51C332.08 27.05 332.47 29.88 332.47 33.02V52.34C332.47 52.78 332.11 53.14 331.67 53.14H325.34C324.9 53.14 324.54 52.78 324.54 52.34V34.4C324.54 33.06 324.45 31.76 324.28 30.49C324.11 29.22 323.77 28.08 323.27 27.07C322.77 26.06 322.07 25.25 321.16 24.65C320.25 24.05 319.04 23.75 317.52 23.75C315.66 23.75 314.08 24.28 312.78 25.34C311.48 26.4 310.51 27.82 309.86 29.59C309.21 31.36 308.88 33.38 308.88 35.64V52.34C308.88 52.78 308.52 53.14 308.08 53.14H301.75C301.31 53.14 300.95 52.78 300.95 52.34" fill="white"/>
<path d="M371.49 69.8C368.98 69.8 366.63 69.37 364.44 68.52C362.25 67.67 360.41 66.33 358.92 64.51C357.6 62.9 356.66 60.88 356.1 58.46C355.98 57.96 356.38 57.49 356.89 57.49H363.4C363.75 57.49 364.07 57.7 364.18 58.03C364.47 58.89 364.94 59.61 365.59 60.19C366.37 60.88 367.29 61.38 368.35 61.68C369.41 61.98 370.5 62.13 371.63 62.13C373.75 62.13 375.43 61.67 376.67 60.75C377.9 59.83 378.78 58.57 379.3 56.98C379.82 55.39 380.08 53.65 380.08 51.76V48.3C379.3 49.64 378.31 50.7 377.12 51.48C375.93 52.27 374.67 52.81 373.35 53.11C372.03 53.41 370.72 53.56 369.42 53.56C365.87 53.56 362.97 52.73 360.74 51.07C358.51 49.41 356.87 47.19 355.83 44.4C354.79 41.61 354.27 38.53 354.27 35.17C354.27 31.81 354.84 28.47 355.99 25.59C357.14 22.71 358.87 20.42 361.19 18.71C363.51 17 366.42 16.15 369.93 16.15C371.97 16.15 373.88 16.53 375.68 17.29C377.48 18.05 378.98 19.19 380.2 20.71L380.63 17.4C380.68 17 381.02 16.7 381.43 16.7H387.27C387.71 16.7 388.07 17.06 388.07 17.5V49.96C388.07 54.06 387.52 57.6 386.41 60.57C385.31 63.54 383.54 65.83 381.11 67.42C378.68 69.01 375.48 69.81 371.49 69.81M371.04 46.08C373.08 46.08 374.77 45.56 376.11 44.52C377.45 43.48 378.47 42.1 379.16 40.37C379.85 38.64 380.2 36.76 380.2 34.73C380.2 32.7 379.86 30.79 379.19 29.13C378.52 27.47 377.52 26.16 376.2 25.19C374.88 24.22 373.18 23.74 371.1 23.74C368.89 23.74 367.14 24.27 365.84 25.33C364.54 26.39 363.6 27.78 363.01 29.51C362.43 31.24 362.13 33.07 362.13 35.01C362.13 36.95 362.43 38.89 363.04 40.58C363.65 42.26 364.6 43.6 365.9 44.59C367.2 45.58 368.91 46.08 371.04 46.08Z" fill="white"/>
<path d="M409.47 69.8C406.83 69.8 404.26 69.42 401.77 68.66C399.46 67.96 397.31 66.81 395.32 65.21C395.04 64.99 394.95 64.6 395.09 64.27L397.31 59.02C397.52 58.53 398.12 58.39 398.54 58.7C399.8 59.64 401.17 60.4 402.66 60.98C404.48 61.69 406.47 62.05 408.64 62.05C412.06 62.05 414.57 61.13 416.15 59.28C417.73 57.44 418.52 54.92 418.52 51.74V49.04C417.74 50.1 416.79 50.98 415.66 51.67C414.53 52.36 413.32 52.87 412.02 53.19C410.72 53.51 409.4 53.68 408.05 53.68C404.71 53.68 402.06 52.95 400.09 51.5C398.12 50.05 396.7 48.04 395.83 45.48C394.96 42.92 394.53 40.01 394.53 36.73V17.48C394.53 17.04 394.89 16.68 395.33 16.68H401.59C402.03 16.68 402.39 17.04 402.39 17.48V34.87C402.39 36.16 402.48 37.48 402.65 38.81C402.82 40.15 403.17 41.37 403.69 42.48C404.21 43.59 404.98 44.47 406 45.14C407.02 45.81 408.37 46.14 410.06 46.14C412.27 46.14 413.98 45.56 415.19 44.41C416.4 43.26 417.24 41.76 417.69 39.92C418.14 38.08 418.37 36.12 418.37 34.04V17.48C418.37 17.04 418.73 16.68 419.17 16.68H425.5C425.94 16.68 426.3 17.04 426.3 17.48V49.66C426.3 52.75 426 55.53 425.39 57.99C424.78 60.46 423.81 62.56 422.46 64.32C421.12 66.07 419.38 67.42 417.26 68.37C415.14 69.31 412.54 69.79 409.46 69.79" fill="white"/>
<path d="M53.21 0.00999482C48.55 -0.280005 44.92 4.64 47.59 9.5C48.02 10.27 48.66 10.92 49.44 11.35C54.31 14.03 59.23 10.39 58.93 5.72999C58.74 2.67999 56.26 0.199995 53.21 0.00999482Z" fill="#3694FC"/>
<path d="M39.81 3.84999H29.36V34.09L11.91 4.13999C11.8 3.95999 11.61 3.84999 11.4 3.84999H0V53.05H11.04V23.65C11.04 23.45 11.3 23.38 11.4 23.55L28.47 52.76C28.57 52.94 28.77 53.05 28.98 53.05H40.39V4.43999C40.39 4.10999 40.13 3.84999 39.8 3.84999" fill="white"/>
<path d="M57.18 15.48C55.8 15.78 54.33 15.94 52.81 15.94C51.02 15.94 49.31 15.72 47.73 15.32V53.06H57.89V16.06C57.89 15.69 57.54 15.41 57.18 15.49" fill="white"/>
<path d="M343.84 0.00998974C339.43 -0.27001 335.99 4.38999 338.52 8.98999C338.92 9.71999 339.54 10.34 340.27 10.74C344.87 13.27 349.53 9.83999 349.25 5.41999C349.07 2.52999 346.73 0.18999 343.84 0.00998974Z" fill="#3694FC"/>
<path d="M144.5 44.05H123.77V32.96H141.32V23.95H123.77V12.86H145.09V3.84999H112.73V53.05H145.09V44.63C145.09 44.3 144.83 44.04 144.5 44.04" fill="white"/>
<path d="M105.86 34.83H94.9401C94.4801 37.71 93.5501 39.98 92.1401 41.65C90.6401 43.43 88.5101 44.32 85.7601 44.32C83.6401 44.32 81.8301 43.67 80.3001 42.38C78.7801 41.09 77.6001 39.26 76.7801 36.91C75.9601 34.55 75.5401 31.76 75.5401 28.52C75.5401 25.28 75.9301 22.61 76.7101 20.2C77.4901 17.8 78.6601 15.93 80.2001 14.59C81.7401 13.25 83.6201 12.58 85.8201 12.58C88.3201 12.58 90.3501 13.41 91.9101 15.07C93.3601 16.61 94.3401 18.72 94.8501 21.38H106.42C105.44 15.39 103.28 10.79 99.9401 7.58C96.5801 4.35 91.8701 2.73 85.8201 2.73C81.4201 2.73 77.5901 3.79 74.3301 5.92C71.0701 8.05 68.5701 11.04 66.8101 14.89C65.0501 18.75 64.1801 23.29 64.1801 28.51C64.1801 33.73 65.1001 38.52 66.9401 42.34C68.7801 46.15 71.3201 49.07 74.5601 51.11C77.8001 53.14 81.4901 54.16 85.6301 54.16C89.7701 54.16 93.1001 53.4 95.9701 51.87C98.8501 50.35 101.17 48.14 102.95 45.25C104.62 42.54 105.78 39.3 106.44 35.51C106.5 35.15 106.23 34.81 105.86 34.81" fill="white"/>
<path d="M339.09 17.05V51.43C339.09 51.94 339.5 52.35 340.01 52.35H346.92C347.43 52.35 347.84 51.94 347.84 51.44V17.05C347.84 16.61 347.45 16.29 347.02 16.36C344.7 16.74 342.24 16.74 339.93 16.36C339.5 16.29 339.1 16.61 339.1 17.05" fill="white"/>
</g>
<defs>
<clipPath id="clip0_12_2">
<rect width="426.31" height="69.8" fill="white"/>
</clipPath>
</defs>
</svg>


