<svg width="550" height="184" viewBox="0 0 550 184" fill="none" xmlns="http://www.w3.org/2000/svg">
<g clip-path="url(#clip0_12_34)">
<path d="M19.5999 92C11.6999 93.5 -4.10009 104.7 2.49991 137.9C27.9999 160.2 45.4999 152.1 50.7999 146C48.1999 153.6 49.9999 172.8 81.9999 183.8C114 172.9 115.8 153.7 113.2 146C118.5 152.1 136 160.1 161.5 137.9C168 104.7 152.3 93.6 144.4 92C152.3 90.5 168.1 79.3 161.5 46.1C136 23.8 118.5 31.9 113.2 38C115.8 30.4 114 11.2 81.9999 0.299988C49.8999 11.2 48.0999 30.4 50.7999 38C45.4999 31.9 27.9999 23.8 2.49991 46.1C-4.10009 79.3 11.6999 90.5 19.5999 92ZM147.1 54.4C154 66.3 152.2 81.4 142.9 91.4C136.6 73.7 126.1 69.5 117.5 71.6C123.6 65.1 125.3 53.9 113 39.6C126.3 36.5 140.2 42.5 147.1 54.4ZM107.5 92C111.2 90.7 119.1 87.4 116.6 72.7C124.9 75.3 130.7 83.2 130.7 92C130.7 100.8 124.9 108.6 116.6 111.3C119.2 96.6 111.3 93.3 107.5 92ZM47.2999 111.3C38.9999 108.7 33.1999 100.8 33.1999 92C33.1999 83.2 38.9999 75.4 47.2999 72.7C44.6999 87.4 52.6999 90.6 56.3999 92C52.5999 93.3 44.6999 96.6 47.2999 111.3ZM69.0999 69.8C66.0999 67.2 59.2999 62 47.8999 71.6C45.9999 63.1 49.8999 54.1 57.4999 49.7C65.0999 45.3 74.7999 46.4 81.1999 52.3C67.2999 57.4 68.3999 65.9 69.0999 69.8ZM47.8999 112.4C59.2999 122 66.0999 116.7 69.0999 114.2C68.3999 118.1 67.1999 126.6 81.2999 131.7C74.7999 137.6 65.1999 138.7 57.5999 134.3C49.8999 129.9 45.9999 120.9 47.8999 112.4ZM69.8999 112.9C64.2999 114.5 58.5999 111.9 55.7999 107.1C52.9999 102.3 53.6999 96 57.8999 92C53.7999 88 53.0999 81.7 55.7999 76.9C58.4999 72.1 64.2999 69.6 69.8999 71.1C71.2999 65.5 76.3999 61.8 81.9999 61.8C87.4999 61.8 92.5999 65.5 94.0999 71.1C99.6999 69.5 105.4 72.1 108.2 76.9C111 81.7 110.3 88 106.1 92C110.2 96.1 110.9 102.3 108.2 107.1C105.4 111.9 99.6999 114.4 94.0999 112.9C92.6999 118.5 87.5999 122.2 81.9999 122.2C76.3999 122.2 71.2999 118.5 69.8999 112.9ZM82.5999 52.3C89.0999 46.4 98.6999 45.3 106.3 49.7C113.9 54.1 117.8 63 115.9 71.6C104.5 62 97.6999 67.3 94.6999 69.8C95.3999 65.9 96.5999 57.4 82.5999 52.3ZM94.6999 114.2C97.6999 116.8 104.5 122 115.9 112.4C117.8 120.9 113.9 129.9 106.3 134.3C98.6999 138.7 88.9999 137.6 82.5999 131.7C96.5999 126.6 95.3999 118.1 94.6999 114.2ZM81.8999 16.8C95.5999 16.8 107.8 25.9 111.8 38.9C93.3999 35.5 84.4999 42.5 81.8999 51C79.3999 42.5 70.4999 35.5 51.9999 38.9C55.9999 25.8 68.1999 16.8 81.8999 16.8ZM20.9999 91.3C11.6999 81.3 9.89991 66.2 16.7999 54.3C23.6999 42.4 37.5999 36.4 50.8999 39.5C38.6999 53.8 40.2999 64.9 46.3999 71.5C37.6999 69.5 27.2999 73.6 20.9999 91.3ZM20.9999 92.6C27.2999 110.3 37.7999 114.5 46.3999 112.4C40.2999 118.9 38.6999 130.1 50.8999 144.4C37.5999 147.5 23.5999 141.4 16.7999 129.6C9.89991 117.7 11.6999 102.6 20.9999 92.6ZM81.8999 167.2C68.1999 167.2 55.9999 158.1 51.9999 145.1C70.4999 148.5 79.2999 141.5 81.8999 133C84.4999 141.6 93.2999 148.6 111.8 145.1C107.9 158.1 95.5999 167.2 81.8999 167.2ZM147.1 129.6C140.2 141.5 126.3 147.5 113 144.4C125.2 130.1 123.6 118.9 117.5 112.4C126.2 114.4 136.7 110.3 142.9 92.6C152.2 102.6 154 117.7 147.1 129.6ZM93.9999 99V85L81.8999 78L69.7999 85V99L81.8999 106L93.9999 99Z" fill="white"/>
<path d="M269.3 59.7L269.2 58.9H248.6L248.5 59.7C252.2 61.5 253.5 63.8 253.5 68.8V115.6C253.5 120.6 252.2 122.8 248.5 124.7L248.6 125.5H269.2L269.3 124.7C265.6 122.9 264.3 120.6 264.3 115.6V68.7C264.3 63.7 265.7 61.5 269.3 59.7Z" fill="white"/>
<path d="M320.4 116.2H299.8V94.8H315.8C320.1 94.8 322.6 96.2 324.4 98.9L325.2 98.8V81.7L324.4 81.6C322.6 84.4 320.1 85.7 315.8 85.7H299.8V68.1H318.3C324.6 68.1 329.1 69.8 332.9 73.6L333.7 73.2L329.9 58.8H284.4L284.3 59.6C287.8 61.4 289.1 63.7 289.1 68.7V115.5C289.1 120.5 287.8 122.7 284.3 124.6L284.4 125.4H332.1L335.8 110.5L335.1 110.2C331 114.3 326.5 116.2 320.4 116.2Z" fill="white"/>
<path d="M543.3 116L521.3 58.8H503.5L503.4 59.7C507.5 61.6 508.5 64.5 506.8 69L488.5 116C486.7 120.6 485 122.8 482 124.6V125.4H501.6L501.7 124.6C498.3 122.9 497.6 120.9 499.3 116.4L502 109.1H529.4L532.2 116.4C533.9 120.9 533.2 122.9 529.8 124.6L529.9 125.4H549.8V124.6C546.8 122.8 545.1 120.7 543.3 116ZM505.5 99.7L515.7 72.6L525.9 99.7H505.5Z" fill="white"/>
<path d="M216 86.8L209.5 85.1C203 83.4 197.8 81.8 197.8 75.9C197.8 70.4 202.5 67.1 209.5 67.1C216.5 67.1 223.5 69.9 229.6 76.6L230.5 76.3L227.7 59.7L227.1 59.6C226.3 60.2 225.5 60.4 224.6 60.4C221.5 60.4 217 57.8 209.4 57.8C196 57.8 187 65.2 187 77C187 87.4 194 93.1 204.2 95.5L210.8 97.2C217.1 98.7 223.1 101.2 223.1 107.4C223.1 112.9 218.2 116.7 210.7 116.7C203.1 116.7 194.2 113.6 186.8 105.6L185.9 105.9L187.9 114.2C188.9 118 189.9 122.2 194.3 123.5C198.9 124.9 204.2 126.3 210.9 126.3C225.6 126.3 234.3 118.5 234.3 106.3C234.2 94.2 226.2 89.5 216 86.8Z" fill="white"/>
<path d="M466.2 110.6L457.9 97.8C466.7 95.4 472.7 87.8 472.7 78.6C472.7 67.2 463.6 58.8 451.1 58.8H419L418.9 59.6C422.4 61.4 423.7 63.7 423.7 68.7V115.5C423.7 120.5 422.4 122.7 418.9 124.6L419 125.4H438.9L439 124.6C435.7 122.8 434.4 120.5 434.4 115.5V98.8H446.1L459.6 119.7C461.7 123 466.6 128.5 478.4 125.5L478.5 124.7C474.4 121.9 471.8 119.3 466.2 110.6ZM450.5 89.4H434.3V68.1H450.5C456.8 68.1 461.6 72.7 461.6 78.7C461.6 84.7 456.8 89.4 450.5 89.4Z" fill="white"/>
<path d="M396.2 110.6L387.9 97.8C396.7 95.4 402.7 87.8 402.7 78.6C402.7 67.2 393.6 58.8 381.1 58.8H349L348.9 59.6C352.4 61.4 353.7 63.7 353.7 68.7V115.5C353.7 120.5 352.4 122.7 348.9 124.6L349 125.4H368.9L369 124.6C365.7 122.8 364.4 120.5 364.4 115.5V98.8H376.1L389.6 119.7C394.9 127.9 406 126.7 410.1 125.5L410.2 124.7C403.8 121.5 400.2 116.7 396.2 110.6ZM380.6 89.4H364.4V68.1H380.6C386.9 68.1 391.7 72.7 391.7 78.7C391.7 84.7 386.9 89.4 380.6 89.4Z" fill="white"/>
</g>
<defs>
<clipPath id="clip0_12_34">
<rect width="550" height="184" fill="white"/>
</clipPath>
</defs>
</svg>


