<svg width="152" height="36" viewBox="0 0 152 36" fill="none" xmlns="http://www.w3.org/2000/svg">
<g clip-path="url(#clip0_12_42)">
<mask id="mask0_12_42" style="mask-type:luminance" maskUnits="userSpaceOnUse" x="0" y="0" width="152" height="36">
<path d="M152 0H0V36H152V0Z" fill="white"/>
</mask>
<g mask="url(#mask0_12_42)">
<path d="M30.7054 29.5246C30.7054 28.9894 30.8421 28.5755 31.1155 28.2803C31.3973 27.9851 31.7934 27.8389 32.3012 27.8389C32.396 27.8389 32.5048 27.8554 32.6303 27.8858C32.7643 27.9078 32.8758 27.9437 32.9707 27.9906V28.6417C32.806 28.5479 32.6052 28.501 32.3709 28.501C31.7767 28.501 31.4781 28.8349 31.4781 29.4998V30.093H32.9344V30.7772H31.4781V35.8648H30.7026V29.5219L30.7054 29.5246ZM33.9331 30.093H34.7086V31.1745C34.9039 30.8269 35.1829 30.5372 35.5427 30.3027C35.911 30.0626 36.3016 29.9605 36.7173 29.9992L36.6949 30.7772C36.5917 30.7551 36.5025 30.7413 36.4243 30.7413C36.1202 30.7413 35.8329 30.8351 35.5679 31.02C35.3084 31.2048 35.102 31.4504 34.9458 31.7511C34.7895 32.0463 34.7114 32.3471 34.7114 32.6561V35.862H33.9359V30.0875L33.9331 30.093ZM39.9087 35.9945C39.3759 35.9945 38.8904 35.862 38.4524 35.5999C38.0229 35.3296 37.6769 34.9654 37.4175 34.5074C37.1664 34.0439 37.0408 33.5307 37.0408 32.9734C37.0408 32.4161 37.1664 31.8863 37.4175 31.4283C37.6769 30.9703 38.02 30.6144 38.4524 30.3606C38.8904 30.0985 39.3759 29.9661 39.9087 29.9661C40.4415 29.9661 40.9241 30.0985 41.3537 30.3606C41.7917 30.6172 42.1376 30.9731 42.3887 31.4283C42.6481 31.8863 42.7765 32.3995 42.7765 32.9734C42.7765 33.5472 42.6481 34.0411 42.3887 34.5074C42.1376 34.9654 41.7945 35.3268 41.3537 35.5999C40.9241 35.862 40.4415 35.9945 39.9087 35.9945ZM39.9087 35.3102C40.3159 35.3102 40.6759 35.2109 40.9883 35.0095C41.3007 34.8081 41.5434 34.5294 41.7164 34.1735C41.8893 33.8176 41.9759 33.4176 41.9759 32.9761C41.9759 32.5347 41.8893 32.1484 41.7164 31.7925C41.5434 31.4366 41.3007 31.1579 40.9883 30.9565C40.6759 30.7469 40.3159 30.642 39.9087 30.642C39.5014 30.642 39.1415 30.7469 38.8291 30.9565C38.5166 31.1579 38.2739 31.4366 38.1009 31.7925C37.928 32.1484 37.8415 32.543 37.8415 32.9761C37.8415 33.4093 37.928 33.8149 38.1009 34.1735C38.2739 34.5294 38.5166 34.8081 38.8291 35.0095C39.1415 35.2109 39.5014 35.3102 39.9087 35.3102ZM44.0877 30.093H44.8632V31.1276C45.0753 30.802 45.3458 30.5317 45.6749 30.3137C46.0126 30.0902 46.4003 29.9771 46.8382 29.9771C47.2763 29.9771 47.6613 30.1012 47.9654 30.3496C48.2722 30.5896 48.4675 30.9152 48.5539 31.3262C48.7269 30.9621 49.0087 30.6448 49.3992 30.3744C49.7898 30.104 50.2166 29.9688 50.6797 29.9688C51.2349 29.9688 51.6813 30.1454 52.0188 30.5041C52.3647 30.86 52.5349 31.4338 52.5349 32.2229V35.8593H51.7593V32.3636C51.7593 31.7291 51.645 31.2821 51.419 31.0283C51.193 30.7662 50.8778 30.6337 50.4789 30.6337C50.172 30.6337 49.8846 30.7275 49.6085 30.9124C49.3351 31.0972 49.1147 31.3345 48.9501 31.6215C48.7855 31.9084 48.7046 32.1953 48.7046 32.4823V35.8731H47.9291V32.3774C47.9291 31.7594 47.8119 31.318 47.5776 31.0531C47.3432 30.7827 47.028 30.6475 46.6374 30.6475C46.3166 30.6475 46.0182 30.7413 45.7448 30.9262C45.4797 31.1055 45.2621 31.3456 45.0975 31.6463C44.9413 31.9415 44.8632 32.2533 44.8632 32.5871V35.8758H44.0877V30.1012V30.093ZM59.696 35.9945C59.1632 35.9945 58.675 35.8979 58.2287 35.7048C57.7824 35.5034 57.4057 35.244 57.1016 34.9267C56.7948 34.6012 56.5799 34.2646 56.4544 33.9169L57.2077 33.5334C57.389 34.0521 57.7042 34.4715 58.1589 34.7888C58.622 35.1061 59.1325 35.2661 59.6989 35.2661C60.2651 35.2661 60.7282 35.1254 61.0965 34.8467C61.4647 34.5598 61.6488 34.1956 61.6488 33.7542C61.6488 33.3514 61.515 33.0561 61.25 32.8713C60.9905 32.6864 60.6362 32.543 60.1815 32.4409L59.0294 32.1843C58.396 32.0436 57.8632 31.7898 57.4308 31.4173C57.0012 31.0366 56.7836 30.5565 56.7836 29.9771C56.7836 29.5743 56.898 29.2101 57.124 28.8845C57.3583 28.559 57.6764 28.3024 58.0752 28.1175C58.4826 27.9327 58.9261 27.8389 59.4032 27.8389C59.8801 27.8389 60.3517 27.9272 60.7645 28.1065C61.1886 28.2775 61.5345 28.49 61.8107 28.7466C62.0925 28.9949 62.2793 29.2266 62.3742 29.4446L61.6461 29.864C61.4815 29.5219 61.1886 29.2211 60.7645 28.9563C60.3432 28.6942 59.8774 28.5617 59.3669 28.5617C59.0768 28.5617 58.8005 28.6197 58.5327 28.7355C58.2677 28.8431 58.0502 29.0059 57.8855 29.2239C57.7294 29.4336 57.6512 29.6819 57.6512 29.9661C57.6512 30.3606 57.7962 30.6751 58.0865 30.9069C58.3849 31.1304 58.795 31.3014 59.3195 31.4173L60.5162 31.696C61.8469 31.9967 62.5137 32.6671 62.5137 33.7045C62.5137 34.1542 62.3882 34.5515 62.137 34.9019C61.8944 35.244 61.5568 35.5089 61.1272 35.7048C60.6976 35.8979 60.2177 35.9945 59.6933 35.9945H59.696ZM66.5086 35.9945C65.9673 35.9945 65.468 35.8676 65.0049 35.611C64.5418 35.3544 64.1764 34.9957 63.9001 34.5294C63.6267 34.0659 63.49 33.5417 63.49 32.9623C63.49 32.3829 63.6156 31.8753 63.8667 31.4173C64.1177 30.9593 64.4525 30.6034 64.8766 30.3496C65.3061 30.093 65.7804 29.9661 66.2993 29.9661C66.8544 29.9661 67.3371 30.0819 67.7443 30.3137C68.16 30.5454 68.4808 30.8627 68.7068 31.2655C68.9328 31.6601 69.0667 32.1098 69.1057 32.6147C69.1142 32.714 69.1169 32.9099 69.1169 33.1968H64.3018C64.3325 33.63 64.4554 34.0052 64.6673 34.3225C64.8793 34.6398 65.1443 34.8826 65.4651 35.0537C65.7944 35.2164 66.1515 35.2965 66.5336 35.2965C66.9158 35.2965 67.2812 35.1999 67.5798 35.0068C67.8866 34.8053 68.1126 34.5488 68.2605 34.2398L68.9189 34.6233C68.7068 35.0261 68.386 35.3544 67.9564 35.611C67.5268 35.8676 67.0441 35.9945 66.5113 35.9945H66.5086ZM68.294 32.5347C68.2772 32.0077 68.1014 31.5635 67.7667 31.1993C67.4292 30.8269 66.941 30.642 66.2993 30.642C65.7972 30.642 65.3591 30.8048 64.9826 31.1304C64.6143 31.4559 64.3911 31.9249 64.3131 32.5374H68.294V32.5347ZM70.4057 30.093H71.1812V31.1745C71.3766 30.8269 71.6556 30.5372 72.0154 30.3027C72.3837 30.0626 72.7742 29.9605 73.1899 29.9992L73.1676 30.7772C73.0643 30.7551 72.9751 30.7413 72.8969 30.7413C72.5901 30.7413 72.3055 30.8351 72.0406 31.02C71.781 31.2048 71.5746 31.4504 71.4185 31.7511C71.2622 32.0463 71.1841 32.3471 71.1841 32.6561V35.862H70.4086V30.0875L70.4057 30.093ZM73.5163 30.093H74.3727L76.2753 35.0537L78.1416 30.093H78.9981L76.7301 35.8676H75.8373L73.5107 30.093H73.5163ZM80.8365 30.093V35.8676H80.0609V30.093H80.8365ZM80.4487 29.0611C80.2841 29.0611 80.1419 29.0032 80.0247 28.8873C79.9075 28.7714 79.8489 28.6307 79.8489 28.4679C79.8489 28.2969 79.9075 28.1534 80.0247 28.0375C80.1419 27.9134 80.2841 27.8527 80.4487 27.8527C80.6133 27.8527 80.7528 27.9134 80.8728 28.0375C80.9899 28.1534 81.0485 28.2969 81.0485 28.4679C81.0485 28.639 80.9899 28.7714 80.8728 28.8873C80.7555 29.0032 80.6133 29.0611 80.4487 29.0611ZM85.0712 35.9945C84.5077 35.9945 84.0028 35.8593 83.5565 35.5889C83.1101 35.3185 82.7614 34.9516 82.5103 34.4853C82.2592 34.0218 82.1337 33.5059 82.1337 32.9403C82.1337 32.3747 82.2536 31.878 82.4992 31.4311C82.7502 30.9731 83.0934 30.6172 83.5313 30.3634C83.9777 30.1012 84.4827 29.9688 85.0462 29.9688C85.579 29.9688 86.0477 30.0875 86.4549 30.3302C86.8706 30.5703 87.1858 30.8683 87.4062 31.2242L86.7367 31.6077C86.5889 31.3373 86.3573 31.1083 86.0448 30.9234C85.7408 30.7386 85.4032 30.6448 85.035 30.6448C84.6194 30.6448 84.2511 30.7496 83.9303 30.9593C83.6095 31.169 83.3611 31.4504 83.191 31.8063C83.018 32.1539 82.9316 32.5457 82.9316 32.9789C82.9316 33.4121 83.0208 33.8176 83.2021 34.1763C83.3891 34.5322 83.6458 34.8109 83.9665 35.0123C84.2957 35.2137 84.664 35.313 85.0712 35.313C85.4786 35.313 85.8217 35.2137 86.1285 35.0123C86.441 34.8026 86.6726 34.5405 86.8204 34.2232L87.4676 34.5957C87.2472 35.0068 86.9264 35.3434 86.5052 35.6055C86.0895 35.8676 85.6124 36 85.0712 36V35.9945ZM91.1918 35.9945C90.6507 35.9945 90.1514 35.8676 89.6883 35.611C89.2252 35.3544 88.8569 34.9957 88.5835 34.5294C88.3101 34.0659 88.1734 33.5417 88.1734 32.9623C88.1734 32.3829 88.299 31.8753 88.55 31.4173C88.8011 30.9593 89.1386 30.6034 89.5599 30.3496C89.9895 30.093 90.4638 29.9661 90.9827 29.9661C91.5378 29.9661 92.0205 30.0819 92.4277 30.3137C92.8434 30.5454 93.1642 30.8627 93.3902 31.2655C93.6161 31.6601 93.75 32.1098 93.7891 32.6147C93.7974 32.714 93.8003 32.9099 93.8003 33.1968H88.9852C89.0159 33.63 89.1386 34.0052 89.3506 34.3225C89.5627 34.6398 89.8277 34.8826 90.1485 35.0537C90.4778 35.2164 90.8347 35.2965 91.217 35.2965C91.5992 35.2965 91.9646 35.1999 92.2631 35.0068C92.5672 34.8053 92.796 34.5488 92.9438 34.2398L93.6022 34.6233C93.3902 35.0261 93.0694 35.3544 92.6397 35.611C92.2101 35.8676 91.7275 35.9945 91.1947 35.9945H91.1918ZM92.9773 32.5347C92.9605 32.0077 92.7848 31.5635 92.45 31.1993C92.1125 30.8269 91.6242 30.642 90.9827 30.642C90.4805 30.642 90.0425 30.8048 89.6659 31.1304C89.2976 31.4559 89.0745 31.9249 88.9964 32.5374H92.9773V32.5347ZM95.2007 27.9685H96.3529L100.183 34.8688V27.9685H100.992V35.8676H99.8874L96.0125 28.9204V35.8676H95.2007V27.9685ZM105.269 35.9945C104.736 35.9945 104.251 35.862 103.813 35.5999C103.383 35.3296 103.037 34.9654 102.78 34.5074C102.529 34.0439 102.403 33.5307 102.403 32.9734C102.403 32.4161 102.529 31.8863 102.78 31.4283C103.04 30.9703 103.383 30.6144 103.813 30.3606C104.251 30.0985 104.736 29.9661 105.269 29.9661C105.801 29.9661 106.285 30.0985 106.714 30.3606C107.152 30.6172 107.497 30.9731 107.746 31.4283C108.005 31.8863 108.134 32.3995 108.134 32.9734C108.134 33.5472 108.005 34.0411 107.746 34.5074C107.494 34.9654 107.152 35.3268 106.714 35.5999C106.285 35.862 105.801 35.9945 105.269 35.9945ZM105.269 35.3102C105.677 35.3102 106.036 35.2109 106.348 35.0095C106.66 34.8081 106.904 34.5294 107.077 34.1735C107.249 33.8176 107.336 33.4176 107.336 32.9761C107.336 32.5347 107.249 32.1484 107.077 31.7925C106.904 31.4366 106.66 31.1579 106.348 30.9565C106.036 30.7469 105.677 30.642 105.269 30.642C104.862 30.642 104.502 30.7469 104.189 30.9565C103.877 31.1579 103.634 31.4366 103.461 31.7925C103.288 32.1484 103.202 32.543 103.202 32.9761C103.202 33.4093 103.288 33.8149 103.461 34.1735C103.634 34.5294 103.877 34.8081 104.189 35.0095C104.502 35.2109 104.862 35.3102 105.269 35.3102ZM108.753 30.093H109.576L110.893 35.0537L112.221 30.093H113.242L114.628 35.0757L115.967 30.093H116.777L115.133 35.8676H114.135L112.736 30.8958L111.376 35.8676H110.388L108.756 30.093H108.753Z" fill="white"/>
<path d="M11.7537 0H8.645C8.00111 0 7.47861 0.517272 7.47861 1.15472V3.04093L4.275 0H1.16639C0.5225 0 0 0.517272 0 1.15472V10.9359H1.83139V1.81307H3.54139L7.48389 5.55415V10.9359H9.31528V7.28884L13.1575 10.9359H15.8017L9.31528 4.78085V1.81307H11.0253L20.5886 10.8888L20.6361 10.9359H23.2803L11.7537 0Z" fill="white"/>
<path d="M20.6256 15.5652L11.0147 24.688H9.30472V21.7202L15.4903 15.8526L15.7911 15.5704H13.147L9.30472 19.2174V15.5704H7.47333V20.9521L3.53611 24.688H1.82611V15.5652H0V25.3463C0 25.9838 0.5225 26.5011 1.16639 26.5011H4.275L7.47861 23.4601V25.3463C7.47861 25.9838 8.00111 26.5011 8.645 26.5011H11.7537L22.9742 15.8526L23.275 15.5704H20.6309L20.6256 15.5652Z" fill="white"/>
<path d="M70.9809 6.43716L66.7376 18.1777H66.5371L62.2937 6.43716H60.3779L65.3865 20.0587H67.8881L72.8969 6.43716H70.9809Z" fill="white"/>
<path d="M41.4729 6.43716L37.3245 18.0836H37.1291L32.9809 6.43716H29.9619V20.0587H31.7671V8.70479H31.9252L35.9786 20.0587H38.475L42.5284 8.70479H42.6866V20.0587H44.4917V6.43716H41.4729Z" fill="white"/>
<path d="M53.3322 6.24908C49.6853 6.24908 46.7402 9.08101 46.7402 13.2505C46.7402 17.4201 49.6853 20.252 53.3322 20.252C56.9792 20.252 59.9241 17.4201 59.9241 13.2505C59.9241 9.08101 56.9792 6.24908 53.3322 6.24908ZM53.3322 18.5591C50.7144 18.5591 48.5453 16.4325 48.5453 13.2505C48.5453 10.0685 50.7144 7.94197 53.3322 7.94197C55.9499 7.94197 58.1192 10.0685 58.1192 13.2505C58.1192 16.4325 55.9499 18.5591 53.3322 18.5591Z" fill="white"/>
<path d="M74.3218 6.43716V20.0587H83.2622V18.3658H76.1266V14.0499H82.8769V12.3571H76.1266V8.13005H83.2622V6.43716H74.3218Z" fill="white"/>
<path d="M135.163 13.1513L141.26 6.43716H138.975L133.48 12.5243V6.43716H131.67V20.0587H133.48V13.773L139.365 20.0587H141.65L135.163 13.1513Z" fill="white"/>
<path d="M151.044 13.8253C150.39 13.2035 149.398 12.7907 148.037 12.5504L145.915 12.169C145.17 12.0383 144.643 11.7823 144.305 11.4479C143.967 11.1135 143.803 10.6903 143.803 10.1991C143.803 9.56693 144.051 9.00786 144.537 8.60554C145.028 8.20322 145.762 7.94197 146.754 7.94197C148.923 7.94197 150.095 9.14371 150.095 10.4813V10.6119H151.9V10.4813C151.9 8.09872 149.894 6.24908 146.754 6.24908C145.282 6.24908 144.094 6.66185 143.27 7.36722C142.447 8.07259 141.993 9.06534 141.993 10.1991C141.993 11.1814 142.289 11.9756 142.864 12.5713C143.439 13.1669 144.289 13.5588 145.377 13.7626L147.978 14.2381C148.733 14.3791 149.287 14.6351 149.646 14.98C150.005 15.3248 150.184 15.7637 150.184 16.3071C150.184 16.9394 149.957 17.4984 149.45 17.9008C148.939 18.3031 148.131 18.5643 146.943 18.5643C145.757 18.5643 144.949 18.2613 144.379 17.7963C143.803 17.3312 143.513 16.699 143.513 16.025V15.8944H141.708V16.025C141.708 18.3083 143.714 20.2572 146.949 20.2572C148.559 20.2572 149.825 19.8444 150.686 19.1443C151.551 18.4389 152 17.4462 152 16.3124C152 15.283 151.704 14.4575 151.044 13.8305V13.8253Z" fill="white"/>
<path d="M101.054 6.43716L98.1613 18.1777H97.9819L94.8943 6.43716H92.3769L89.2947 18.1777H89.1099L86.2177 6.43716H84.3071L87.7483 20.0587H90.651L93.5433 8.89289H93.728L96.6202 20.0587H99.5229L102.964 6.43716H101.054Z" fill="white"/>
<path d="M124.423 14.9068H125.352C127.553 14.9068 129.343 13.1251 129.343 10.6746C129.343 8.2241 127.553 6.44238 125.352 6.44238H119.341V20.0639H121.146V14.9121H122.117L127.517 20.0639H129.823L124.423 14.9121V14.9068ZM125.352 13.214H121.146V8.13005H125.352C126.519 8.13005 127.532 9.10712 127.532 10.6694C127.532 12.2317 126.519 13.2087 125.352 13.2087V13.214Z" fill="white"/>
<path d="M110.516 6.24908C106.87 6.24908 103.924 9.08101 103.924 13.2505C103.924 17.4201 106.87 20.252 110.516 20.252C114.163 20.252 117.109 17.4201 117.109 13.2505C117.109 9.08101 114.163 6.24908 110.516 6.24908ZM110.516 18.5591C107.899 18.5591 105.73 16.4325 105.73 13.2505C105.73 10.0685 107.899 7.94197 110.516 7.94197C113.135 7.94197 115.303 10.0685 115.303 13.2505C115.303 16.4325 113.135 18.5591 110.516 18.5591Z" fill="white"/>
</g>
</g>
<defs>
<clipPath id="clip0_12_42">
<rect width="152" height="36" fill="white"/>
</clipPath>
</defs>
</svg>
