<svg width="419" height="172" viewBox="0 0 419 172" fill="none" xmlns="http://www.w3.org/2000/svg">
<path fill-rule="evenodd" clip-rule="evenodd" d="M372.963 124.521C372.961 125.098 372.842 125.668 372.614 126.197C372.385 126.727 372.052 127.204 371.633 127.601C371.245 128.004 370.779 128.323 370.263 128.54C369.747 128.757 369.193 128.866 368.633 128.861C368.062 128.867 367.495 128.758 366.966 128.542C366.437 128.325 365.957 128.006 365.553 127.602C365.149 127.198 364.829 126.717 364.613 126.188C364.397 125.659 364.288 125.093 364.293 124.521C364.288 123.962 364.396 123.407 364.613 122.891C364.83 122.375 365.15 121.909 365.553 121.521C365.948 121.1 366.425 120.764 366.955 120.535C367.485 120.306 368.056 120.189 368.633 120.191C369.767 120.245 370.84 120.719 371.643 121.522C372.446 122.324 372.92 123.397 372.973 124.531L372.963 124.521Z" fill="#FDFEFE"/>
<path d="M371.844 134.531H365.333V170.231H371.844V134.531Z" fill="#FDFEFE"/>
<path fill-rule="evenodd" clip-rule="evenodd" d="M311.103 134.531V155.191C311.165 158.115 310.414 160.999 308.933 163.521C307.492 165.891 305.436 167.826 302.983 169.121C300.317 170.473 297.363 171.16 294.373 171.121C291.362 171.155 288.386 170.469 285.693 169.121C283.238 167.829 281.181 165.893 279.743 163.521C278.303 160.985 277.577 158.107 277.643 155.191V134.531H284.153V155.111C284.103 157.07 284.587 159.006 285.553 160.711C286.446 162.214 287.728 163.447 289.263 164.281C290.801 165.107 292.518 165.54 294.263 165.541C296.01 165.55 297.73 165.116 299.263 164.281C300.825 163.458 302.132 162.224 303.043 160.711C304.05 159.02 304.56 157.079 304.513 155.111V134.531H311.103Z" fill="#FDFEFE"/>
<path fill-rule="evenodd" clip-rule="evenodd" d="M257.953 140.061V159.661C257.889 161.013 258.339 162.338 259.213 163.371C259.701 163.824 260.274 164.175 260.899 164.403C261.524 164.632 262.189 164.733 262.853 164.701H270.063V170.191H261.663C260.299 170.317 258.923 170.142 257.634 169.676C256.346 169.211 255.175 168.467 254.206 167.498C253.237 166.529 252.494 165.359 252.028 164.07C251.563 162.781 251.387 161.406 251.513 160.041V140.041H245.363V134.511H251.523V125.511H257.963V134.511H270.213V140.041L257.953 140.061Z" fill="#FDFEFE"/>
<path fill-rule="evenodd" clip-rule="evenodd" d="M242.364 159.311C242.373 161.199 241.891 163.057 240.964 164.701C240.021 166.348 238.671 167.725 237.044 168.701C235.316 169.752 233.325 170.286 231.304 170.241H213.454V164.711H230.534C231.536 164.738 232.526 164.496 233.404 164.011C234.204 163.529 234.857 162.838 235.294 162.011C235.707 161.236 235.924 160.37 235.924 159.491C235.934 158.69 235.741 157.898 235.364 157.191C234.986 156.433 234.371 155.819 233.614 155.441C232.79 154.951 231.842 154.708 230.884 154.741H223.674C221.618 154.777 219.577 154.396 217.674 153.621C216.046 152.873 214.661 151.685 213.674 150.191C212.702 148.539 212.216 146.647 212.274 144.731C212.271 142.977 212.729 141.252 213.604 139.731C214.544 138.14 215.887 136.824 217.496 135.915C219.105 135.006 220.925 134.536 222.774 134.551H239.224V140.081H223.364C222.73 140.049 222.098 140.15 221.506 140.38C220.915 140.609 220.379 140.96 219.934 141.411C219.125 142.247 218.673 143.364 218.673 144.526C218.673 145.689 219.125 146.806 219.934 147.641C220.959 148.529 222.29 148.981 223.644 148.901H230.504C232.718 148.828 234.92 149.259 236.944 150.161C238.623 150.86 240.028 152.089 240.944 153.661C241.931 155.377 242.422 157.333 242.364 159.311Z" fill="#FDFEFE"/>
<path fill-rule="evenodd" clip-rule="evenodd" d="M417.223 152.381C417.264 155.715 416.419 159.001 414.773 161.901C413.192 164.691 410.897 167.01 408.123 168.621C405.269 170.358 402.001 171.299 398.659 171.345C395.318 171.391 392.025 170.541 389.124 168.883C386.222 167.225 383.818 164.82 382.161 161.918C380.505 159.016 379.656 155.723 379.703 152.381C379.651 149.068 380.498 145.802 382.153 142.931C383.732 140.139 386.028 137.819 388.803 136.211C391.755 134.559 395.081 133.692 398.463 133.692C401.846 133.692 405.172 134.559 408.123 136.211C410.904 137.782 413.203 140.081 414.773 142.861C416.43 145.757 417.277 149.045 417.223 152.381Z" fill="#EA0339"/>
<path fill-rule="evenodd" clip-rule="evenodd" d="M333.233 14.5312C333.252 16.9042 332.684 19.2451 331.579 21.3451C330.473 23.445 328.865 25.2388 326.898 26.5663C324.931 27.8939 322.666 28.7139 320.305 28.9534C317.944 29.1928 315.56 28.8442 313.367 27.9387C311.173 27.0331 309.238 25.5988 307.733 23.7635C306.229 21.9283 305.202 19.7492 304.744 17.4206C304.286 15.0921 304.412 12.6864 305.11 10.4182C305.808 8.14994 307.056 6.08971 308.743 4.42117C310.033 3.02696 311.596 1.91446 313.336 1.15361C315.076 0.392762 316.954 0 318.853 0C320.752 0 322.631 0.392762 324.371 1.15361C326.111 1.91446 327.674 3.02696 328.963 4.42117C330.33 5.72397 331.414 7.29362 332.148 9.03275C332.883 10.7719 333.252 12.6434 333.233 14.5312Z" fill="#EA0339"/>
<path fill-rule="evenodd" clip-rule="evenodd" d="M62.4134 3.79102V46.921H61.9434C60.3173 44.6655 58.282 42.7354 55.9434 41.231C53.5538 39.5125 50.8794 38.2294 48.0434 37.441C45.0627 36.5858 41.9743 36.1648 38.8734 36.191C31.7859 36.0641 24.7971 37.8649 18.6534 41.401C12.8639 44.8751 8.11485 49.8418 4.90344 55.781C3.88063 57.7044 3.02418 59.7117 2.34344 61.781C0.73112 66.7976 -0.0590863 72.042 0.00344005 77.311C-0.0548876 83.2901 0.961247 89.2311 3.00344 94.851C4.90006 100.05 7.7981 104.827 11.5334 108.911C15.3381 112.884 19.9807 115.959 25.1234 117.911C30.9823 120.088 37.194 121.159 43.4434 121.071C52.2901 121.071 59.9268 119.281 66.3534 115.701C72.8093 112.201 78.087 106.871 81.5234 100.381C85.1034 93.7143 86.8934 85.971 86.8934 77.151V3.79102H62.4134ZM59.7334 89.581C58.3228 92.6707 56.0788 95.306 53.2534 97.191C50.3237 99.0338 46.9133 99.9664 43.4534 99.871C40.0006 99.9353 36.6021 99.005 33.6634 97.191C30.8384 95.3142 28.594 92.6854 27.1834 89.601C25.6764 86.1673 24.9228 82.4505 24.9734 78.701C24.9122 75.0021 25.6668 71.3352 27.1834 67.961C28.2811 65.5528 29.9163 63.4284 31.9634 61.751C32.5034 61.3084 33.0712 60.9009 33.6634 60.531C36.5648 58.6169 39.9781 57.6267 43.4534 57.691C46.936 57.5955 50.3616 58.5882 53.2534 60.531C53.843 60.9 54.4076 61.3075 54.9434 61.751C56.9937 63.4278 58.6323 65.5522 59.7334 67.961C61.2501 71.3352 62.0047 75.0021 61.9434 78.701C61.9912 82.4438 61.2377 86.1535 59.7334 89.581Z" fill="#FDFEFE"/>
<path fill-rule="evenodd" clip-rule="evenodd" d="M184.564 61.7312C183.952 60.1768 183.247 58.6607 182.454 57.1912C179.169 50.7484 174.055 45.4189 167.754 41.8712C161.434 38.0712 153.744 36.1745 144.684 36.1812C135.737 36.1812 127.944 38.0778 121.304 41.8712C113.512 46.4029 107.44 53.386 104.034 61.7312C101.803 67.3204 100.692 73.2936 100.764 79.3112C100.655 86.6785 102.228 93.9735 105.364 100.641C108.231 106.643 112.65 111.77 118.164 115.491C123.786 119.226 130.415 121.156 137.164 121.021C141.143 121.114 145.106 120.473 148.854 119.131C152.023 117.992 154.926 116.215 157.384 113.911C159.673 111.645 161.593 109.033 163.074 106.171H163.704V119.171H187.704V78.8412C187.753 72.9902 186.687 67.1834 184.564 61.7312ZM160.484 89.4212C159.11 92.5688 156.865 95.2579 154.014 97.1712C151.136 98.999 147.781 99.9317 144.374 99.8512C140.852 99.9373 137.38 99.0069 134.374 97.1712C131.522 95.2579 129.277 92.5688 127.904 89.4212C126.389 85.9897 125.631 82.2718 125.684 78.5212C125.631 74.8736 126.389 71.2598 127.904 67.9412C128.998 65.5309 130.634 63.4058 132.684 61.7312C133.219 61.2877 133.784 60.8802 134.374 60.5112C137.343 58.5752 140.83 57.585 144.374 57.6712C147.804 57.5911 151.174 58.584 154.014 60.5112C154.603 60.8802 155.168 61.2877 155.704 61.7312C157.754 63.4058 159.389 65.5309 160.484 67.9412C161.998 71.2598 162.757 74.8736 162.704 78.5212C162.756 82.2718 161.999 85.9897 160.484 89.4212Z" fill="#FDFEFE"/>
<path fill-rule="evenodd" clip-rule="evenodd" d="M289.614 61.731C286.697 53.2843 280.958 46.1009 273.364 41.391C267.237 37.8405 260.253 36.0417 253.174 36.191C250.023 36.1758 246.887 36.5999 243.854 37.451C241.034 38.2829 238.367 39.5625 235.954 41.241C233.682 42.7758 231.701 44.7025 230.104 46.931H229.634V3.79102H205.144V77.101C205.144 85.9477 206.934 93.691 210.514 100.331C213.953 106.819 219.23 112.148 225.684 115.651C232.217 119.231 239.854 121.021 248.594 121.021C254.796 121.138 260.964 120.065 266.764 117.861C271.906 115.909 276.549 112.834 280.354 108.861C284.172 104.811 287.129 100.028 289.044 94.801C291.086 89.1811 292.102 83.2402 292.044 77.261C292.107 71.9849 291.286 66.7355 289.614 61.731ZM264.714 89.581C263.319 92.6419 261.125 95.2706 258.364 97.191C255.433 99.0327 252.023 99.9652 248.564 99.871C245.042 99.9605 241.569 99.0298 238.564 97.191C235.811 95.2775 233.627 92.6549 232.244 89.601C230.729 86.1695 229.971 82.4517 230.024 78.701C229.994 74.985 230.794 71.3092 232.364 67.941C233.446 65.548 235.048 63.4265 237.054 61.731C237.569 61.2879 238.113 60.8803 238.684 60.511C241.651 58.5716 245.139 57.581 248.684 57.671C252.166 57.5768 255.591 58.5695 258.484 60.511C259.053 60.8772 259.594 61.285 260.104 61.731C262.112 63.4266 263.717 65.5479 264.804 67.941C266.425 71.2855 267.237 74.9646 267.174 78.681C267.198 82.4546 266.356 86.1835 264.714 89.581Z" fill="#FDFEFE"/>
<path d="M331.173 38.0712H306.533V119.131H331.173V38.0712Z" fill="#FDFEFE"/>
<path fill-rule="evenodd" clip-rule="evenodd" d="M414.524 78.6812C412.212 74.8924 408.688 71.9958 404.524 70.4612C399.701 68.5611 394.545 67.6497 389.364 67.7812H375.464C374.766 67.8284 374.066 67.7258 373.411 67.4802C372.757 67.2346 372.162 66.8517 371.667 66.3572C371.173 65.8627 370.79 65.2681 370.544 64.6134C370.299 63.9586 370.196 63.2589 370.244 62.5612C370.241 62.2829 370.265 62.0051 370.314 61.7312C370.465 60.7257 370.943 59.798 371.674 59.0912C372.707 58.148 374.065 57.6395 375.464 57.6712H410.694V38.0712H371.694C367.088 38.0359 362.557 39.2377 358.574 41.5512C354.761 43.7917 351.56 46.9379 349.254 50.7112C347.303 54.0651 346.182 57.8364 345.984 61.7112C345.984 62.2512 345.934 62.7912 345.934 63.3312C345.934 69.3312 347.147 74.2312 349.574 78.0312C352.074 81.6926 355.587 84.5457 359.684 86.2412C364.276 87.9788 369.154 88.837 374.064 88.7712H388.284C389.287 88.7556 390.273 89.0299 391.124 89.5612C391.974 89.9868 392.685 90.6458 393.174 91.4612C393.705 92.312 393.979 93.2982 393.964 94.3012C393.962 95.2548 393.688 96.1882 393.174 96.9912C392.657 97.823 391.955 98.5245 391.124 99.0412C390.239 99.4709 389.266 99.6867 388.284 99.6712H349.284V119.111V140.881H349.144C348.389 139.422 347.341 138.135 346.064 137.101C343.315 134.89 339.891 133.686 336.364 133.691C333.255 133.647 330.19 134.42 327.474 135.931C324.846 137.436 322.689 139.641 321.244 142.301C319.685 145.277 318.914 148.603 319.004 151.961C318.962 154.686 319.412 157.396 320.334 159.961C321.211 162.194 322.519 164.233 324.184 165.961C325.823 167.645 327.804 168.958 329.994 169.811C332.371 170.675 334.884 171.101 337.414 171.071C340.657 171.132 343.862 170.36 346.724 168.831C349.461 167.347 351.719 165.113 353.234 162.391C354.935 159.266 355.783 155.748 355.694 152.191V119.191H391.774C396.432 119.269 401.023 118.065 405.044 115.711C408.962 113.484 412.23 110.271 414.524 106.391C416.956 102.495 418.219 97.9836 418.164 93.3912C418.164 87.3779 416.95 82.4745 414.524 78.6812ZM347.524 159.381C346.569 161.256 345.116 162.83 343.324 163.931C341.528 165.009 339.468 165.566 337.374 165.541C335.265 165.556 333.191 165 331.374 163.931C329.57 162.822 328.096 161.252 327.104 159.381C326.053 157.224 325.502 154.858 325.49 152.459C325.478 150.06 326.005 147.689 327.034 145.521C328.035 143.639 329.506 142.047 331.304 140.901C332.647 140.049 334.154 139.489 335.728 139.258C337.301 139.026 338.906 139.128 340.437 139.557C341.969 139.987 343.393 140.733 344.617 141.748C345.842 142.764 346.839 144.025 347.544 145.451C348.663 147.611 349.217 150.019 349.154 152.451C349.221 154.858 348.677 157.242 347.574 159.381H347.524Z" fill="#FDFEFE"/>
</svg>
